<svg
  xmlns="http://www.w3.org/2000/svg"
  viewBox="0 0 100 100"
>
  <path d="M86.035,17.285L75.879,27.441l5.176,5.176c1.836,1.836,1.836,4.805,0,6.621l-3.398,3.398
	c2.305,5.098,3.594,10.762,3.594,16.719c0,22.441-18.184,40.625-40.625,40.625S0,81.816,0,59.375S18.184,18.75,40.625,18.75
	c5.957,0,11.621,1.289,16.719,3.594l3.398-3.398c1.836-1.836,4.805-1.836,6.621,0l5.176,5.176l10.156-10.156L86.035,17.285z
	 M97.656,11.719h-4.688c-1.289,0-2.344,1.055-2.344,2.344s1.055,2.344,2.344,2.344h4.688c1.289,0,2.344-1.055,2.344-2.344
	S98.945,11.719,97.656,11.719z M85.938,0c-1.289,0-2.344,1.055-2.344,2.344v4.688c0,1.289,1.055,2.344,2.344,2.344
	s2.344-1.055,2.344-2.344V2.344C88.281,1.055,87.227,0,85.938,0z M92.559,10.742l3.32-3.32c0.918-0.918,0.918-2.402,0-3.32
	s-2.402-0.918-3.32,0l-3.32,3.32c-0.918,0.918-0.918,2.402,0,3.32C90.176,11.66,91.66,11.66,92.559,10.742z M79.316,10.742
	c0.918,0.918,2.402,0.918,3.32,0s0.918-2.402,0-3.32l-3.32-3.32c-0.918-0.918-2.402-0.918-3.32,0s-0.918,2.402,0,3.32L79.316,10.742
	z M92.559,17.383c-0.918-0.918-2.402-0.918-3.32,0s-0.918,2.402,0,3.32l3.32,3.32c0.918,0.918,2.402,0.918,3.32,0
	s0.918-2.402,0-3.32L92.559,17.383z M21.875,53.125c0-6.895,5.605-12.5,12.5-12.5c1.719,0,3.125-1.406,3.125-3.125
	s-1.406-3.125-3.125-3.125c-10.332,0-18.75,8.418-18.75,18.75c0,1.719,1.406,3.125,3.125,3.125S21.875,54.844,21.875,53.125z" />
</svg>
