<svg
  version="1.1"
  id="Layer_1"
  xmlns="http://www.w3.org/2000/svg"
  xmlns:xlink="http://www.w3.org/1999/xlink"
  width="100px"
  height="100px"
  viewBox="150.5 0.5 100 100"
  enable-background="new 150.5 0.5 100 100"
  xml:space="preserve"
>
  <linearGradient
    id="SVGID_1_"
    gradientUnits="userSpaceOnUse"
    x1="153"
    y1="57"
    x2="236"
    y2="57"
  >
    <stop
      offset="0"
      style="stop-color:#FFFFFF"
    />
    <stop
      offset="1"
      style="stop-color:#000000"
    />
  </linearGradient>
  <path
    fill="url(#SVGID_1_)"
    stroke="#000000"
    stroke-width="5"
    stroke-miterlimit="10"
    d="M222.465,18.929
	c-3.905-3.905-10.237-3.905-14.142,0.001l-1.518,1.518C202.502,18.865,197.853,18,193,18c-22.092,0-40,17.909-40,40
	c0,22.092,17.908,40,40,40s40-17.908,40-40c0-4.297-0.686-8.432-1.939-12.312l2.011-2.011c3.905-3.905,3.905-10.237,0-14.143
	L222.465,18.929z"
  />
  <path
    stroke="#000000"
    stroke-miterlimit="10"
    d="M237.5,8.071c0,1.065-0.896,1.929-2,1.929l0,0c-1.104,0-2-0.863-2-1.929V2.929
	c0-1.065,0.896-1.929,2-1.929l0,0c1.104,0,2,0.863,2,1.929V8.071z"
  />
  <path
    stroke="#000000"
    stroke-miterlimit="10"
    d="M248.071,13.5c1.065,0,1.929,0.896,1.929,2l0,0c0,1.104-0.863,2-1.929,2h-5.143
	c-1.065,0-1.929-0.896-1.929-2l0,0c0-1.104,0.863-2,1.929-2H248.071z"
  />
  <path
    stroke="#000000"
    stroke-miterlimit="10"
    d="M245.813,8.016c-0.754,0.753-1.998,0.73-2.778-0.051l0,0
	c-0.78-0.781-0.804-2.024-0.05-2.777l3.637-3.637c0.753-0.754,1.996-0.73,2.777,0.05l0,0c0.781,0.78,0.804,2.024,0.051,2.778
	L245.813,8.016z"
  />
  <line
    fill="none"
    stroke="#000000"
    stroke-width="5"
    stroke-miterlimit="10"
    x1="235.5"
    y1="15.5"
    x2="225.5"
    y2="25.5"
  />
</svg>
