<?xml version="1.0" encoding="utf-8"?>
<!-- Generator: Adobe Illustrator 16.0.0, SVG Export Plug-In . SVG Version: 6.00 Build 0)  -->
<!DOCTYPE svg PUBLIC "-//W3C//DTD SVG 1.1//EN" "http://www.w3.org/Graphics/SVG/1.1/DTD/svg11.dtd">
<svg version="1.1" id="Layer_1" xmlns="http://www.w3.org/2000/svg" xmlns:xlink="http://www.w3.org/1999/xlink" x="0px" y="0px"
	 width="100px" height="100px" viewBox="0 0 100 100" enable-background="new 0 0 100 100" xml:space="preserve">
<path fill="#FFFFFF" stroke="#000000" stroke-width="5" stroke-miterlimit="10" d="M96.35,39.625
	C95.178,34.369,93.14,29.44,90.385,25H80l-5-5V9.618C70.554,6.859,65.617,4.82,60.353,3.65L56.61,7.761L50,15.022l-6.61-7.261
	L39.647,3.65C34.382,4.82,29.447,6.859,25,9.618V20l-5,5H9.615C6.86,29.44,4.822,34.369,3.65,39.625l4.165,3.764L15.132,50
	l-7.316,6.61L3.65,60.375C4.822,65.631,6.86,70.56,9.615,75H20l5,5v10.382c4.441,2.755,9.371,4.793,14.628,5.964l3.761-4.162
	L50,84.867l6.61,7.316l3.761,4.162c5.258-1.171,10.188-3.209,14.629-5.964V80l5-5h10.385c2.755-4.44,4.793-9.369,5.965-14.625
	l-4.165-3.765L84.869,50l7.315-6.611L96.35,39.625z M50,72.5c-12.427,0-22.5-10.073-22.5-22.5c0-12.426,10.073-22.5,22.5-22.5
	S72.5,37.574,72.5,50C72.5,62.427,62.427,72.5,50,72.5z"/>
<circle fill="#FFFFFF" stroke="#000000" stroke-width="5" stroke-miterlimit="10" cx="-95" cy="-41" r="47.5"/>
<circle fill="#FFFFFF" stroke="#000000" stroke-width="5" stroke-miterlimit="10" cx="-95" cy="-41" r="22.5"/>
<polygon fill="#FFFFFF" stroke="#000000" stroke-miterlimit="10" points="-129.868,-41 -137.185,-34.39 -144.5,-27.778 -144.5,-41 
	-144.5,-54.221 -137.185,-47.611 "/>
<polygon fill="#FFFFFF" stroke="#000000" stroke-miterlimit="10" points="-95,-75.978 -101.61,-83.239 -108.22,-90.5 -95,-90.5 
	-81.78,-90.5 -88.39,-83.239 "/>
<polygon fill="#FFFFFF" stroke="#000000" stroke-miterlimit="10" points="-95,-6.133 -88.39,1.184 -81.778,8.5 -95,8.5 
	-108.221,8.5 -101.611,1.184 "/>
<polygon fill="#FFFFFF" stroke="#000000" stroke-miterlimit="10" points="-60.131,-41 -52.815,-47.611 -45.5,-54.221 -45.5,-41 
	-45.5,-27.778 -52.815,-34.39 "/>
<polygon fill="#FFFFFF" stroke="#000000" stroke-miterlimit="10" points="-70,-71 -65,-66 -50,-66 -50,-86 -70,-86 "/>
<polygon fill="#FFFFFF" stroke="#000000" stroke-miterlimit="10" points="-120,-11 -125,-16 -140,-16 -140,4 -120,4 "/>
<polygon fill="#FFFFFF" stroke="#000000" stroke-miterlimit="10" points="-65,-16 -70,-11 -70,4 -50,4 -50,-16 "/>
<polygon fill="#FFFFFF" stroke="#000000" stroke-miterlimit="10" points="-125,-66 -120,-71 -120,-86 -140,-86 -140,-66 "/>
</svg>
