<?xml version="1.0" encoding="utf-8"?>
<!-- Generator: Adobe Illustrator 16.0.0, SVG Export Plug-In . SVG Version: 6.00 Build 0)  -->
<!DOCTYPE
  svg
  PUBLIC "-//W3C//DTD SVG 1.1//EN" "http://www.w3.org/Graphics/SVG/1.1/DTD/svg11.dtd"
>
<svg
  version="1.1"
  id="Layer_1"
  xmlns="http://www.w3.org/2000/svg"
  xmlns:xlink="http://www.w3.org/1999/xlink"
  x="0px"
  y="0px"
  width="100px"
  height="100px"
  viewBox="0 0 100 100"
  enable-background="new 0 0 100 100"
  xml:space="preserve"
>
  <linearGradient
    id="SVGID_1_"
    gradientUnits="userSpaceOnUse"
    x1="2.5"
    y1="50"
    x2="97.5"
    y2="50"
  >
    <stop
      offset="0"
      style="stop-color:#FFFFFF"
    />
    <stop
      offset="1"
      style="stop-color:#E50B00"
    />
  </linearGradient>
  <path
    fill="url(#SVGID_1_)"
    stroke="#000000"
    stroke-width="5"
    stroke-miterlimit="10"
    d="M93.634,34.651
	c4.687-4.686,5.182-11.789,1.107-15.863L81.213,5.261c-4.074-4.076-11.178-3.58-15.863,1.105l-1.252,1.252
	C59.294,5.929,54.132,5,48.75,5C23.207,5,2.5,25.707,2.5,51.25S23.207,97.5,48.75,97.5S95,76.793,95,51.25
	c0-5.381-0.929-10.543-2.618-15.347L93.634,34.651z M70.4,64.681l-12.009-1.009l-1.091,12.001l-8.551-8.492l-8.55,8.492
	l-1.091-12.001L27.1,64.681l6.878-9.896L24.13,47.84l11.63-3.159l-3.08-11.65l10.939,5.056l5.13-10.905l5.131,10.905L64.82,33.03
	l-3.08,11.65l11.63,3.159l-9.849,6.945L70.4,64.681z"
  />
</svg>
